<?xml version="1.0" encoding="utf-8"?><svg viewBox="0 0 57 57" xmlns="http://www.w3.org/2000/svg" xmlns:xlink="http://www.w3.org/1999/xlink"><style>:root>svg{display:none}:root>svg:target{display:block}</style><svg fill="none" viewBox="0 0 57 57" id="logo" xmlns="http://www.w3.org/2000/svg"><g clip-path="url(#aclip0)"><path d="M12.659 57L6.187 43.617c-4.864-10.058-2.015-21.85 6.217-28.675 5.124-4.25 10.013-8.774 14.5-13.692L28.043 0l2.651 3.504c3.273 4.323 5.77 8.92 7.245 13.578L12.659 57z" fill="#00AA95"/><path d="M52.187 16.692l-.862-4.309c-4.26 10.043-15.188 15.38-21.452 22.309C18.92 46.81 12.66 57 12.66 57h6.485c28.826 0 37.214-19.456 33.043-40.308z" fill="#00CC76"/><path d="M51.325 12.383l-1.571.63a132.883 132.883 0 01-11.814 4.07 165.97 165.97 0 01-7.2 1.943c-10.382 2.56-18.081 11.936-18.081 23.109V57s26.955-17.012 38.666-44.617z" fill="#A5E887"/></g><defs><clipPath id="aclip0"><path fill="#fff" d="M0 0h57v57H0z"/></clipPath></defs></svg></svg>